<svg id="filter_icon" data-name="filter icon" xmlns="http://www.w3.org/2000/svg" width="24" height="24" viewBox="0 0 24 24">
  <path id="container" d="M4,0H20a4,4,0,0,1,4,4V20a4,4,0,0,1-4,4H4a4,4,0,0,1-4-4V4A4,4,0,0,1,4,0Z" transform="translate(24) rotate(90)" fill="#fff" opacity="0"/>
  <path id="filter_icon-2" data-name="filter icon" d="M11.437,0H.563a.563.563,0,0,0-.4.96L4.5,5.3v4.83a.563.563,0,0,0,.24.461L6.615,11.9a.563.563,0,0,0,.885-.461V5.3L11.835.96A.563.563,0,0,0,11.437,0Z" transform="translate(6 6)" fill="#366ef1"/>
</svg>
