<svg xmlns="http://www.w3.org/2000/svg" width="9" height="12" viewBox="0 0 9 12">
  <path id="billing_icon_12x12" data-name="billing icon 12x12" d="M6.75,6H2.25V7.5h4.5ZM8.836,2.461,6.541.164A.562.562,0,0,0,6.143,0H6V3H9V2.857A.561.561,0,0,0,8.836,2.461ZM5.25,3.188V0H.563A.561.561,0,0,0,0,.563V11.438A.561.561,0,0,0,.563,12H8.438A.561.561,0,0,0,9,11.438V3.75H5.813A.564.564,0,0,1,5.25,3.188ZM1.5,1.688A.187.187,0,0,1,1.688,1.5H3.563a.187.187,0,0,1,.188.188v.375a.187.187,0,0,1-.187.188H1.688A.187.187,0,0,1,1.5,2.063Zm0,1.5A.187.187,0,0,1,1.688,3H3.563a.187.187,0,0,1,.188.188v.375a.187.187,0,0,1-.187.188H1.688A.187.187,0,0,1,1.5,3.563Zm6,7.125a.187.187,0,0,1-.187.188H5.438a.187.187,0,0,1-.187-.187V9.938a.187.187,0,0,1,.188-.187H7.313a.187.187,0,0,1,.188.188Zm0-4.687v2.25a.375.375,0,0,1-.375.375H1.875A.375.375,0,0,1,1.5,7.875V5.625a.375.375,0,0,1,.375-.375h5.25A.375.375,0,0,1,7.5,5.625Z" fill="#707070"/>
</svg>
