<svg xmlns="http://www.w3.org/2000/svg" width="12" height="12" viewBox="0 0 12 12">
  <path id="report_icon_12x12" data-name="report icon 12x12" d="M4.545,9.941a.228.228,0,0,0-.212-.153.224.224,0,0,0-.209.145l-.16.36a.321.321,0,0,1-.614-.049L3,9.061l-.221.747a.915.915,0,0,1-.854.692H1.667a.378.378,0,0,1,0-.75h.258a.238.238,0,0,0,.222-.18L2.525,8.29A.509.509,0,0,1,3,7.905a.509.509,0,0,1,.474.385l.289.976A.879.879,0,0,1,5.139,9.6a.237.237,0,0,0,.195.147V7.82L8,4.841V3.75H5.167a.536.536,0,0,1-.5-.562V0H.5A.533.533,0,0,0,0,.563V11.438A.533.533,0,0,0,.5,12h7a.533.533,0,0,0,.5-.562V10.5l-2.667,0A.892.892,0,0,1,4.545,9.941ZM8,2.857a.6.6,0,0,0-.146-.4L5.815.164A.473.473,0,0,0,5.46,0H5.333V3H8ZM6,8.132V9.75H7.437l3.368-3.815L9.391,4.344,6,8.132Zm5.845-4.21-.664-.747a.49.49,0,0,0-.75,0l-.568.639L11.277,5.4l.568-.639A.65.65,0,0,0,11.845,3.922Z" fill="#707070"/>
</svg>
