<svg xmlns="http://www.w3.org/2000/svg" width="12" height="10" viewBox="0 0 12 10">
  <path id="shipment_icon_12x12" data-name="shipment icon 12x12" d="M14.571,11.169l-1.5-3.077h-2.25V6.553a.762.762,0,0,0-.75-.769H3.321a.762.762,0,0,0-.75.769v6.154l.75.769h.951a1.561,1.561,0,0,0-.2.769,1.5,1.5,0,1,0,3,0,1.561,1.561,0,0,0-.2-.769h4.152a1.561,1.561,0,0,0-.2.769,1.5,1.5,0,1,0,3,0,1.561,1.561,0,0,0-.2-.769h.951V11.169Zm-3.75,0V8.861h1.555L13.5,11.169Z" transform="translate(-2.57 -5.784)" fill="#707070"/>
</svg>
