<svg xmlns="http://www.w3.org/2000/svg" width="12" height="10" viewBox="0 0 12 10">
  <path id="staff_icon_12x12" data-name="staff icon 12x12" d="M1.8,6.536A1.331,1.331,0,0,0,3,5.107,1.331,1.331,0,0,0,1.8,3.679,1.331,1.331,0,0,0,.6,5.107,1.331,1.331,0,0,0,1.8,6.536Zm8.4,0a1.331,1.331,0,0,0,1.2-1.429,1.331,1.331,0,0,0-1.2-1.429A1.331,1.331,0,0,0,9,5.107,1.331,1.331,0,0,0,10.2,6.536Zm.6.714H9.6a1.109,1.109,0,0,0-.846.415,3.319,3.319,0,0,1,1.408,2.442H11.4a.664.664,0,0,0,.6-.714V8.679A1.331,1.331,0,0,0,10.8,7.25ZM6,7.25a2.325,2.325,0,0,0,2.1-2.5A2.325,2.325,0,0,0,6,2.25a2.325,2.325,0,0,0-2.1,2.5A2.325,2.325,0,0,0,6,7.25Zm1.44.714H7.284a2.488,2.488,0,0,1-2.569,0H4.56A2.393,2.393,0,0,0,2.4,10.536v.643a1,1,0,0,0,.9,1.071H8.7a1,1,0,0,0,.9-1.071v-.643A2.393,2.393,0,0,0,7.44,7.964Zm-4.194-.3A1.109,1.109,0,0,0,2.4,7.25H1.2A1.331,1.331,0,0,0,0,8.679v.714a.664.664,0,0,0,.6.714H1.836A3.327,3.327,0,0,1,3.246,7.665Z" transform="translate(0 -2.25)" fill="#707070"/>
</svg>
