<svg xmlns="http://www.w3.org/2000/svg" width="12" height="12" viewBox="0 0 12 12">
  <path id="store_icon_12x12" data-name="store icon 12x12" d="M11.732,2.78,10.467.352A.608.608,0,0,0,9.939,0H2.068A.608.608,0,0,0,1.54.352L.276,2.78c-.653,1.254-.074,3,1.146,3.2A1.689,1.689,0,0,0,1.688,6a1.8,1.8,0,0,0,1.438-.776A1.805,1.805,0,0,0,4.564,6,1.8,1.8,0,0,0,6,5.222,1.805,1.805,0,0,0,7.439,6a1.8,1.8,0,0,0,1.438-.776A1.808,1.808,0,0,0,10.315,6a1.671,1.671,0,0,0,.267-.021C11.806,5.78,12.386,4.036,11.732,2.78ZM10.319,6.75a2.08,2.08,0,0,1-.575-.089V9H2.263V6.661a2.172,2.172,0,0,1-.575.089,2.193,2.193,0,0,1-.351-.028,2.1,2.1,0,0,1-.32-.084V11.25a.7.7,0,0,0,.623.75H10.37a.7.7,0,0,0,.623-.75V6.638a1.706,1.706,0,0,1-.32.084A2.26,2.26,0,0,1,10.319,6.75Z" transform="translate(-0.004)" fill="#707070"/>
</svg>
