<svg xmlns="http://www.w3.org/2000/svg" width="12" height="12" viewBox="0 0 12 12">
  <path id="control_tower_icon_12x12" data-name="control tower icon 12x12" d="M2.83,4.5h.632c.206,0,.349-.254.279-.5A3.628,3.628,0,0,1,3.741,2c.071-.243-.072-.5-.279-.5H2.83a.315.315,0,0,0-.289.263,5.483,5.483,0,0,0,0,2.473A.315.315,0,0,0,2.83,4.5ZM1.686.547C1.792.3,1.649,0,1.424,0H.762A.306.306,0,0,0,.485.218,8.131,8.131,0,0,0,0,3,7.945,7.945,0,0,0,.5,5.786.3.3,0,0,0,.774,6h.653c.225,0,.368-.3.262-.548a6.39,6.39,0,0,1,0-4.905ZM11.514.218A.306.306,0,0,0,11.237,0h-.664c-.225,0-.369.3-.263.545a6.428,6.428,0,0,1,.005,4.9c-.107.25.034.551.261.551h.661a.306.306,0,0,0,.276-.218,8.2,8.2,0,0,0,0-5.565ZM9.17,1.5H8.537c-.206,0-.349.254-.279.5A3.628,3.628,0,0,1,8.259,4c-.07.243.072.5.279.5H9.17a.314.314,0,0,0,.289-.263,5.482,5.482,0,0,0,0-2.473A.314.314,0,0,0,9.17,1.5ZM6.989,3.847A1.764,1.764,0,0,0,7.2,3,1.375,1.375,0,0,0,6,1.5,1.375,1.375,0,0,0,4.8,3a1.764,1.764,0,0,0,.21.847L2.564,11.192a.414.414,0,0,0,.161.49l.553.289a.282.282,0,0,0,.392-.2L4.593,9H7.407l.922,2.769a.282.282,0,0,0,.392.2l.553-.289a.414.414,0,0,0,.161-.49L6.989,3.847ZM5.093,7.5,6,4.777,6.907,7.5Z" fill="#707070"/>
</svg>
