<svg xmlns="http://www.w3.org/2000/svg" width="22" height="20" viewBox="0 0 22 20">
  <path id="wallet_icon" data-name="wallet icon" d="M25.342,21.167v1.111A2.277,2.277,0,0,1,23.026,24.5H6.816A2.27,2.27,0,0,1,4.5,22.278V6.722A2.27,2.27,0,0,1,6.816,4.5H23.026a2.277,2.277,0,0,1,2.316,2.222V7.833H14.921a2.27,2.27,0,0,0-2.316,2.222v8.889a2.27,2.27,0,0,0,2.316,2.222ZM14.921,18.944H26.5V10.056H14.921Zm4.632-2.778A1.668,1.668,0,1,1,21.289,14.5,1.7,1.7,0,0,1,19.553,16.167Z" transform="translate(-4.5 -4.5)" fill="#366ef1"/>
</svg>
